<?xml version="1.0" encoding="UTF-8"?>
<svg xmlns="http://www.w3.org/2000/svg" version="1.1" viewBox="0 0 128 128">
  <defs>
    <style>
      .cls-1 {
        fill: #f8f3ef;
      }

      .cls-2 {
        fill: #003539;
      }

      .cls-3 {
        fill: #e48c1f;
      }

      .cls-4 {
        fill: #120f0b;
      }

      .cls-5 {
        fill: #f9b014;
      }

      .cls-6 {
        fill: #eda03f;
      }

      .cls-7 {
        fill: #fefefe;
      }
    </style>
  </defs>
  <!-- Generator: Adobe Illustrator 28.7.1, SVG Export Plug-In . SVG Version: 1.2.0 Build 142)  -->
  <g>
    <g id="Layer_1">
      <rect class="cls-2" width="128" height="128" rx="14.5" ry="14.5"/>
      <g>
        <path class="cls-4" d="M77.5,88.5c.6,2.7,1.3,5.3,1.3,8.1,0,2-.3,3.9-1.4,5.7-.2.3-.5.6-.1,1.1,2.4,2.7,2.9,6.1,3.7,9.4.5,1.8.7,3.7,1,5.5.3,2-.4,3.6-2,4.8-2.3,1.7-4.9,2.1-7.7,1.3-1.8-.5-3-1.8-3.5-3.7-1-3.8-1.5-7.7-1.2-11.6,0-.9-.2-1-1-1-2.2.2-2.2.1-2.1,2.4,0,3.3-.5,6.6-1.3,9.8-.6,2.2-2,3.5-4.2,4-3.7.8-7.5-.8-8.7-3.7-.4-.9-.4-1.9-.3-2.9.7-3.7,1.3-7.4,2.6-10.9-.5-.3-.8,0-1.1.1-5.4,2.8-15.7-2.9-15.4-10.7.1-3,1.6-5.3,3.8-7.3,1.3-1.2,2.7-2.6,4.3-2.9,2.1-.4,3-2.1,4.6-2.9,2.3-1.2,4.6-2,7.2-2,.4,0,.9.2,1.3-.5-1.5-.2-2.9-.5-4.3-.7-8.2-1.2-15.3-4.7-21.5-10-2-1.6-3.9-3.3-5.9-4.9-.6-.5-.8-.8,0-1.4,1.8-1.5,1.8-1.6.3-3.4-.8-.9-.6-1.3.3-1.9,1.8-1.1,3.6-2.3,5.3-3.4.5-.3.9-.7,1-1.3.7-2.5,1.6-4.9,2.8-7.3.2-.4.5-.8.3-1.3-1.5-4.7-1-9.5-.3-14.3,1.1-7,3-13.8,6.2-20.1,1.2-2.3,2.6-4.5,4.7-6.2.5-.4.9-.6,1.4,0,3.3,3.8,6.7,7.5,9.3,11.9,1.5,2.5,2.7,5.2,3.4,8,.1.5.2,1,.9.9,1.8-.3,3.6-.1,5.4,0,.6,0,.9,0,1-.7,1.1-5.8,4.2-10.7,7.9-15.2,1.6-1.9,3.3-3.8,4.9-5.7.6-.7,1-.6,1.6,0,1.7,1.4,2.9,3.2,4,5,3.8,6.9,5.8,14.4,6.9,22.2.6,4,.8,8,0,12-.1.5.1.9.4,1.2,2,3.4,3.5,6.9,4.5,10.7.1.6.4.9.9,1.2,1.3.8,2.6,1.7,4,2.5.6.3.7.6.2,1.1-.1.1-.2.3-.3.4-1.4,1.7-1.4,1.8.2,3.3.5.5.4.8,0,1.2-2.5,3.1-5,6.3-7.8,9.1-3.8,3.7-8.2,6.2-13.4,7.1-.2,0-.4,0-.5.1,0,0-.1,0-.3.2,1.6.7,3,1.4,4.3,2.4,1.8,1.5,3.3,3.1,4.2,5.3,1.1,2.9,0,5.4-2.7,6.8-1.7.9-3.1.6-4.3-.9-1.1-1.3-1.8-2.9-2.6-4.4-.4-.8-.7-1.6-1.5-2.2-.1-.3-.3-.2-.5-.1,0,.1.2.2.3.4ZM87.7,90.2c-.3-1.9-1.5-3.4-2.8-4.6-2.8-2.4-5.8-4.5-9.8-4-.3,0-.6,0-.4.4.3.6.7,1.2,1,1.8.3.9.6,1.8,1.4,2.3,1.3.9,2.3,2.2,3.1,3.6.8,1.2,1.3,2.5,2.2,3.6.5,1,1.2,1.6,2.4,1.4,2.1-.2,3.5-2.6,2.8-4.6ZM44.3,90.7c-.3.6-.2,1.3,0,2,.3,1.3,1.7,2.5,2.9,2.7,1.2.1,2-.4,2.4-1.5,1-1.2,1.6-2.8,2.5-4.1,1.9-2.9,4.6-4.6,8.1-4.9,0,.7-.6.8-1.1.9-.9.2-1.8.3-2.6.8-.2-.1-.2,0-.2.2,0,0,0,0,0,0-.3,0-.4.3-.5.6-.8,2.3-1.3,4.6-1.6,6.9-.2,2.4-.4,4.7.8,7,.4.8.9,1.3,1.9,1.1,0,.2,0,.3-.1.5-.9.6-1.3,1.4-1.8,2.3-2,4.1-2.9,8.5-3.4,13.1-.4,1.5.2,2.6,1.4,3.5,1.3,1,2.8,1.4,4.4,1.4,2.7,0,4.2-1,4.8-3.2.9-3,1.3-6.2,1.3-9.3,0-2,0-4.1-1.3-5.9,0-.3-.2-.5-.3-.8.8,0,1.5.6,1.7,1.3.6,1.7,1.8,1.7,3.2,1.5.9-.1,1.8-.2,2.6-.4,3.5-1,6.4-2.6,7.6-6.4.3-.8.5-1.7.5-2.6,0-5.4-1.6-10.3-4.3-15-.4-.7-1-.8-1.7-.7-2,0-4.1-.2-6.1-.3-1.9-.2-3.8-.4-5.7-.6-.5,0-1.3-.1-.6.8-4.9,0-9.1,1.6-12.5,5.1-1.1,1.1-2,2.4-2.3,4ZM70.2,120.2c.4,2.5,3.5,3.7,6.5,3,2.7-.6,4.7-2.5,4.1-4.7-.5-4.3-1.3-8.4-3.1-12.4-1.1-2.5-1.1-2.4-3.1-.6-1.4.9-3,1.6-4.6,2.1-.7,0-1,.3-1,1.1-.3,3.9.2,7.8,1.2,11.6ZM42.9,88.5c-.8.5-1.5,1.1-2.2,1.7-2.6,2.5-3.8,5.3-2.6,8.9,1.5,3.7,4.4,5.9,8.2,6.9,2.3.6,4.6.3,6.7-1,1.7-1.1,1.8-1.6.7-3.2-.2-.5-.4-1-.6-1.6,0-1-.6-.8-1.2-.9-3.4-.2-6.6-.8-8.4-4.3-.8-2.1-.6-4.2-.3-6.4,0,0,0-.1.1-.2-.1,0-.2,0-.3,0ZM82,5.7c-.5-.9-1-.9-1.7,0-1.3,1.7-2.8,3.2-4.2,4.9-3.4,4.2-6.2,8.7-7.4,14-.2,1.1,0,1.4,1.1,1.3,1.7.6,3.4,1.1,5.1,1.7,2.8,1.4,5.6,3,8.1,5,2.4,1.9,4.4,4.1,6.5,6.4.6,1,1.2,1.9,2.1,2.7.6-3.7.3-7.3-.2-10.8-1-7.3-3-14.2-6.3-20.8-.8-1.6-1.7-3.2-3.1-4.3ZM96.6,57.1c0,0-.2-.2-.3-.3-.1-.3-.2-.7-.3-1-2.8-10.8-8.9-19.2-18.5-25-4.1-2.5-8.6-4-13.5-3.8-.8,0-1.7,0-2.5,0-.5,0-.8.1-.7.7.1,1.3-.6,2.1-1.4,2.9,0-1.2.2-2.4,0-3.6-.6-3.4-1.8-6.6-3.5-9.5-2.4-4.1-5.4-7.6-8.5-11.1-.7-.8-1-.4-1.4.2-.9.6-1.5,1.6-2,2.5-3.8,6.1-5.7,12.9-7,19.9-.9,4.7-1.5,9.4-.5,14.1.3,1.7.8,3.4,3,3.8-.6.3-1.2.7-1.7.6-1-.2-1.2.4-1.5,1.1-1,2.3-1.8,4.7-2.4,7.1-1.5.9-2.9,1.9-4.4,2.8-1.8,1.2-1.9,1.2-.5,2.8.8.9.7,1.5-.2,2.1-.1,0-.3.2-.4.3-.6.4-.7.8,0,1.3,1.3,1.1,2.6,2.2,3.9,3.3,5.4,4.5,11.2,8.1,18.3,9.4,8.6,1.7,17.3,2.6,26.1,2.1,4.9-.3,9.5-1.5,13.6-4.4,4-2.9,7-6.8,10.1-10.6.5-.6,0-.8-.3-1.2q-1.5-1.4-.2-3c.1-.2.3-.4.4-.5.3-.3.4-.6,0-.9-1.2-.7-2.2-1.6-3.4-2h0ZM46.5,96.6c1.8,1.5,3.7,2,5.6,2.5.8.2.6-.4.6-.8-.2-2.2,0-4.3.5-6.4,0-.4.2-.8-.2-1.1-.8,1.3-1.4,2.6-2.2,3.9-.9,1.4-2,2.5-4.3,2Z"/>
        <path class="cls-6" d="M59.4,30.6c.8-.8,1.5-1.6,1.4-2.9,0-.5.3-.7.7-.7.8,0,1.7,0,2.5,0,.3.2.5.4.8.4,3.4.6,6.6,1.9,9.5,3.8,6.4,3.9,11.4,9.3,14.7,16.1-1.9.2-3.8.6-5.4,1.9-.7.6-1.6,1.3-1.2,2.3.3,1.1,1.4,1.3,2.4,1.4,2.2.2,4.1-.5,6-1.5.8,1.5,1.1,3.1,1.4,4.7-.1,0-.3,0-.4,0-2.6-1-4.9-.5-6.8,1.3-1.8,1.9-2.7,4.2-2,6.9.2.9,1,1.6.9,2.6-.5-.3-.8-.9-1.1-1.4-1.9-3.1-3-6.6-3.8-10.1-.4-1.6-.7-3.3-1-5.1-.3.3-.5.5-.6.6-.6,1.1-1.2,1-1.8,0-.6-1-1.3-.9-2.2-.3-1.7,1.3-1.8,1.3-3.3,0-.7-.6-1-.7-1.1.4,0,.3-.1.6-.2.9-1.2,4.6-2.8,9-5.7,12.8-3.5,4.6-8.1,6.5-13.3,4.9-6.6-2-11.2-6.6-14.7-12.3.7-.5,1.4-1,2.1-1.4.7-.4,1-.9,1.1-1.6.6-2.3,1.3-4.5,2.4-6.7.3-.5.3-1,.2-1.7-1.5-6.2-1.5-12.5-.8-18.7.5-4.6,1.5-9,3-13.4.7-2.2,1.3-4.6,2.8-6.4,1.4,1.2,2.5,2.7,3.7,4,2.3,2.5,4.2,5.3,5.9,8.3,1.9,3.5,3.4,7.3,3.2,11.5.5-.2.6-.6.7-.9ZM43.2,38.6c0,2.4,0,4.3.3,6.1.3,1.5.2,1.6,1.7.9,4.8-2.2,8.6-5.6,11.6-9.9.4-.5.4-1,.3-1.6-1.3-6.3-3.4-12.3-7.5-17.5-1.6-2-1.7-2-2.6.4-2.7,7.1-3.7,14.6-3.9,21.6ZM60.5,62.6c.4-4.1-3.8-7.3-7-7.4-3.6,0-7.5,2.8-7.5,7.3,0,3.9,3.4,7.4,7.2,7.4,4.1,0,7.6-3.3,7.3-7.2ZM58.2,52.9c.2,0,.5,0,.9,0,.9,0,1.8-.4,2.1-1.3.3-.9-.4-1.5-1-2.1-2-1.7-4.3-2.3-6.9-2-.8,0-1.7.3-2,1.3-.3.9.3,1.7,1,2.2,1.7,1.3,3.6,2,5.9,2Z"/>
        <path class="cls-1" d="M35.1,57.5c3.6,5.7,8.1,10.3,14.7,12.3,5.2,1.5,9.8-.3,13.3-4.9,2.9-3.8,4.4-8.2,5.7-12.8,0-.3.2-.6.2-.9.1-1,.5-.9,1.1-.4,1.5,1.3,1.6,1.3,3.3,0,.9-.7,1.6-.7,2.2.3.6,1,1.2,1.1,1.8,0,0-.2.3-.3.6-.6.4,1.8.6,3.5,1,5.1.8,3.5,1.8,7,3.8,10.1.3.5.5,1,1.1,1.4.5.9,1.2,1.6,2.2,2.1,1.6,1.8,5.3,1.8,7,.2,1.5-.9,2.5-2.1,3-3.7h0c1.1-1.9,1.2-3.9.9-6,0-.8-.6-1.5-.4-2.3,1.3.5,2.3,1.4,3.4,2,.4.2.4.5,0,.9-.2.2-.3.3-.4.5q-1.3,1.6.2,3c.3.3.8.5.3,1.2-3.1,3.8-6.1,7.7-10.1,10.6-4.1,2.9-8.6,4.1-13.6,4.4-8.8.5-17.5-.5-26.1-2.1-7-1.4-12.9-5-18.3-9.4-1.3-1.1-2.6-2.2-3.9-3.3-.7-.5-.6-.9,0-1.3.1,0,.3-.2.4-.3.9-.6,1.1-1.2.2-2.1-1.4-1.5-1.3-1.6.5-2.8,1.5-.9,2.9-1.9,4.4-2.8.4.6.9,1.3,1.3,1.9ZM71.9,73.4c.2.3.5.2.7.1,2.1-.5,4.1-1.2,6.2,0,.1,0,.4,0,.5-.1.1-.2,0-.3-.3-.5-.6-.4-1.2-.9-1.8-1.4-.5-.4-.4-1-.4-1.5,0-.6.6-.5.9-.5.7-.1,1.4-.3,2-.7,1.9-1.2,1.9-3.1,0-4.2-1.6-1-3.4-1-5.2-.7-1.9.3-3.2,1.5-3.3,2.7,0,1.3,1.3,2.4,3.3,2.9,0,0,0,0,.1,0,.4.1,1,0,1.1.7,0,.6,0,1-.7,1.3-1.1.6-2.2,1.2-3.2,1.8Z"/>
        <path class="cls-1" d="M65.5,81.4c2,0,4.1.2,6.1.3,3.4,4,4.8,8.8,5,14,.1,3-1.7,5.5-4.4,6.6-.5.2-1,.4-1.5.6-.2,0-.3,0-.5,0-.9,0-1.9,0-2.8,0-4.2-.3-7.2-3.8-6.8-8,.4-4.9,1.6-9.6,4.9-13.6Z"/>
        <path class="cls-1" d="M89.5,38.9c-2-2.2-4.1-4.5-6.5-6.4-2.5-2-5.2-3.5-8.1-5,1.2-3.9,2.8-7.6,4.7-11.2,1.1-2.2,2.2-4.5,4-6.3.6.7.8,1.5,1.1,2.3,1.2,3.1,1.9,6.2,2.5,9.4,1.1,5.7,2,11.4,2.2,17.2Z"/>
        <path class="cls-6" d="M65.5,81.4c-3.3,3.9-4.5,8.6-4.9,13.6-.4,4.2,2.6,7.6,6.8,8,.9,0,1.9,0,2.8,0,0,.4-.3.5-.7.5-2.4,0-4.8.2-7-.6-4.3-1.5-6.9-4.2-7.1-9.3,0-2.3.7-4.5.8-6.8,0,0,0,0,0,0,0,0,.2-.1.2-.2.8-.5,1.7-.6,2.6-.8.5-.1,1.1-.2,1.1-.9.5-.5.2-1.1.3-1.6,0-.3,0-.6-.4-.7-.4-.1-.4.3-.5.5-.3.5-.7.7-1.3.8-1.5.2-3,.6-4.2,1.6-2.8,2.1-4.2,5.1-5.7,8.1-1.2-.4-2.2-1-3-2,.1-1.3.7-2.4,1.5-3.3,2.6-3,5.8-5.1,9.8-5.8.9-.2,1.9.1,2.7-.4.2-.1.2-.2,0-.3,0,0-.2,0-.3,0-.6-.9,0-.9.6-.8,1.9.2,3.8.4,5.7.6Z"/>
        <path class="cls-3" d="M35.1,57.5c-.4-.6-.9-1.3-1.3-1.9.7-2.4,1.4-4.8,2.4-7.1.3-.7.5-1.3,1.5-1.1.5,0,1.1-.3,1.7-.6-2.3-.3-2.7-2-3-3.8-.9-4.7-.4-9.5.5-14.1,1.3-7,3.2-13.8,7-19.9.6-.9,1.1-1.8,2-2.5,0,.4,0,.7,0,1.1-1.5,1.9-2.1,4.2-2.8,6.4-1.5,4.3-2.5,8.8-3,13.4-.7,6.3-.6,12.5.8,18.7.1.6.1,1.1-.2,1.7-1.1,2.1-1.8,4.4-2.4,6.7-.2.7-.5,1.2-1.1,1.6-.7.4-1.4.9-2.1,1.4Z"/>
        <path class="cls-5" d="M96.6,57.1c-.2.8.3,1.5.4,2.3.3,2.1.2,4.1-.9,6,0-.8,0-1.5,0-2.3.4-3.3-1-5.6-3.8-7.2-.3-1.6-.6-3.2-1.4-4.7.3-.3.6-.5.8-.8,1.2-1.3.8-2.6-.9-3-.6-.1-1.1-.1-1.7-.2-3.3-6.8-8.3-12.1-14.7-16.1-3-1.8-6.1-3.1-9.5-3.8-.3,0-.5-.3-.8-.4,4.9-.1,9.4,1.4,13.5,3.8,9.6,5.8,15.7,14.2,18.5,25,0,.3.2.7.3,1,0,.1,0,.3.3.3h0Z"/>
        <path class="cls-6" d="M83.6,10c-1.7,1.9-2.8,4.1-4,6.3-1.9,3.6-3.5,7.3-4.7,11.2-1.7-.6-3.4-1.1-5.1-1.7,0-.6.1-1.1.3-1.7,1.2-3.8,3.2-7.3,5.7-10.4,1.9-2.4,3.7-4.8,5.9-6.9,1.4.6,1.2,2.1,1.9,3.2Z"/>
        <path class="cls-6" d="M61.8,104c0,.3.2.5.3.8.1,4-.1,7.9-1.1,11.8-.4,1.7-1.4,2.8-3,3.3-.4.1-.8.2-.8.7-.2,0-.3,0-.5,0-.2-.3-.3-.3-.6,0-1.3-.3-2.5-.7-3.6-1.6,2,0,2.3-.5,3-2.8.9-3,1.5-6,1.8-9.1.1-1.4.4-2.9-.8-4,0-.2,0-.3.1-.5.3,0,.6.2.7,0,1-1.1,1.8-.3,2.7,0,.8.3.9,1.1,1.6,1.5Z"/>
        <path class="cls-3" d="M83.6,10c-.7-1-.5-2.6-1.9-3.2,0-.4.2-.8.3-1.1,1.4,1.2,2.3,2.8,3.1,4.3,3.4,6.5,5.3,13.5,6.3,20.8.5,3.6.8,7.1.2,10.8-.9-.9-1.5-1.8-2.1-2.7-.2-5.8-1.1-11.5-2.2-17.2-.6-3.2-1.4-6.4-2.5-9.4-.3-.8-.6-1.6-1.1-2.3Z"/>
        <path class="cls-6" d="M70.1,107.6c1.6-.5,3.2-1.2,4.6-2.1.1.5.3,1,.3,1.4.1,3.5,1,6.8,2,10.2.4,1.3,1.2,2.2,2.7,2.1-1.1.8-2.3,1.2-3.6,1.5-.1-.2-.2-.1-.3,0-.3,0-.5,0-.8,0,0-.3-.2-.5-.6-.6-2-.5-2.9-1.8-3.3-3.7-.6-2.9-1-5.8-1.1-8.8Z"/>
        <path class="cls-3" d="M61.8,104c-.7-.4-.8-1.2-1.6-1.5-.9-.4-1.8-1.1-2.7,0-.1.1-.5,0-.7,0-1,.2-1.4-.3-1.9-1.1-1.2-2.2-1-4.6-.8-7,.2-2.4.8-4.7,1.6-6.9,0-.3.2-.5.5-.6-.1,2.3-.9,4.5-.8,6.8.1,5.1,2.8,7.8,7.1,9.3,2.3.8,4.7.6,7,.6.3,0,.6,0,.7-.5.2,0,.3,0,.5,0,.3.4.5,0,.8,0,2.1-.5,3.7-1.9,5.5-3-1.2,3.7-4.1,5.4-7.6,6.4-.9.2-1.8.3-2.6.4-1.4.2-2.6.2-3.2-1.5-.2-.7-.9-1.2-1.7-1.3Z"/>
        <path class="cls-5" d="M56.7,102.8c1.2,1.1.9,2.6.8,4-.3,3.1-1,6.1-1.8,9.1-.7,2.3-1,2.7-3,2.8-.4-.2-.7-.4-1.1-.6.5-4.5,1.4-8.9,3.4-13.1.4-.9.9-1.8,1.8-2.3Z"/>
        <path class="cls-5" d="M79.7,119.1c-1.5,0-2.3-.7-2.7-2.1-1-3.3-1.9-6.7-2-10.2,0-.5-.2-1-.3-1.4,2-1.8,2-1.8,3.1.6,1.7,3.9,2.6,8.1,3.1,12.4-.4.2-.8.4-1.2.6Z"/>
        <path class="cls-6" d="M53,100.2c.2.5.4,1,.6,1.6-4.4,2.5-8.3,1.5-12.1-1.4-.9-.7-1.3-2.1-2.7-2.3.9-1.4,2.1-2.5,3.8-2.7,0,.6.4,1.1.8,1.5,2.6,2.8,6,3,9.4,3.3Z"/>
        <path class="cls-3" d="M38.9,98c1.3.2,1.7,1.6,2.7,2.3,3.8,2.9,7.7,3.9,12.1,1.4,1.1,1.6,1,2.2-.7,3.2-2.1,1.3-4.4,1.6-6.7,1-3.8-1-6.7-3.1-8.2-6.9.3-.4.6-.7.8-1.1Z"/>
        <path class="cls-5" d="M45.9,7.6c0-.4,0-.7,0-1.1.4-.6.7-1,1.4-.2,3.1,3.5,6.1,7,8.5,11.1,1.7,3,2.9,6.1,3.5,9.5.2,1.2,0,2.4,0,3.6-.2.3-.2.7-.7.9.2-4.2-1.2-7.9-3.2-11.5-1.6-3-3.6-5.7-5.9-8.3-1.2-1.4-2.3-2.9-3.7-4Z"/>
        <path class="cls-6" d="M75.7,83.8c-.3-.6-.7-1.2-1-1.8-.2-.4,0-.4.4-.4.1,0,.2.2.3.2,5.3,1.1,9.4,3.7,11.5,8.9-.8,1.1-2,1.7-3.2,2.1-1-2.1-2.1-4.1-3.5-5.9-1.1-1.5-2.5-2.7-4.5-3.1Z"/>
        <path class="cls-5" d="M82,5.7c0,.4-.2.8-.3,1.1-2.2,2.1-4.1,4.5-5.9,6.9-2.4,3.2-4.4,6.6-5.7,10.4-.2.6-.3,1.1-.3,1.7-1,0-1.3-.2-1.1-1.3,1.2-5.3,4-9.8,7.4-14,1.3-1.7,2.8-3.2,4.2-4.9.7-.8,1.2-.8,1.7,0Z"/>
        <path class="cls-1" d="M38.9,98c-.3.4-.6.7-.8,1.1-1.2-3.6,0-6.4,2.6-8.9.7-.7,1.4-1.3,2.2-1.7,0,0,.1.1.2.2-.3,2.2-.5,4.3.3,6.4-.2.1-.4.2-.7.3-1.7.2-2.9,1.3-3.8,2.7Z"/>
        <path class="cls-3" d="M57.2,120.5c0-.5.4-.6.8-.7,1.6-.5,2.6-1.6,3-3.3,1-3.9,1.2-7.8,1.1-11.8,1.2,1.8,1.2,3.9,1.3,5.9,0,3.2-.4,6.3-1.3,9.3-1.6.4-3.2,1.1-4.9.6Z"/>
        <path class="cls-1" d="M57.2,120.5c1.7.5,3.3-.2,4.9-.6-.6,2.2-2.1,3.2-4.8,3.2-1.6,0-3.1-.4-4.4-1.4-1.1-.9-1.8-2-1.4-3.5.4.2.7.4,1.1.6,1.1.8,2.3,1.2,3.6,1.6.2,0,.4,0,.6,0,.2,0,.3,0,.5,0Z"/>
        <path class="cls-1" d="M79.7,119.1c.4-.2.8-.4,1.2-.6.6,2.3-1.4,4.1-4.1,4.7-3,.7-6.1-.5-6.5-3,1.6.4,3.2,1.1,4.9.6.3,0,.5,0,.8,0,0,0,.2,0,.3,0,1.3-.3,2.5-.7,3.6-1.5Z"/>
        <path class="cls-3" d="M48.4,93.5c1.5-3,2.9-6,5.7-8.1,1.2-.9,2.7-1.4,4.2-1.6.6,0,1-.2,1.3-.8.1-.2.1-.6.5-.5.3,0,.4.4.4.7,0,.6.2,1.2-.3,1.6-3.5.3-6.2,2-8.1,4.9-.9,1.3-1.5,2.9-2.5,4.1-.4-.1-.8-.3-1.2-.4Z"/>
        <path class="cls-3" d="M75.1,120.7c-1.7.5-3.3-.2-4.9-.6-1-3.8-1.5-7.6-1.2-11.6,0-.8.4-1,1-1.1,0,3,.5,5.9,1.1,8.8.4,1.9,1.3,3.3,3.3,3.7.4,0,.5.3.6.6Z"/>
        <path class="cls-6" d="M77,100c-1.8,1.1-3.4,2.5-5.5,3-.3,0-.6.4-.8,0,.5-.2,1-.4,1.5-.6,2.7-1.1,4.5-3.6,4.4-6.6-.2-5.2-1.6-9.9-5-14,.7-.1,1.3,0,1.7.7,2.6,4.7,4.3,9.6,4.3,15,0,.9-.1,1.8-.5,2.6Z"/>
        <path class="cls-5" d="M59.4,81.9c-.8.5-1.8.3-2.7.4-4,.7-7.2,2.8-9.8,5.8-.8.9-1.4,2.1-1.5,3.3-.3-.3-.7-.5-1-.8.3-1.6,1.2-2.9,2.3-4,3.4-3.5,7.6-5.2,12.5-5.1,0,0,.2,0,.3,0,0,0,0,.2,0,.3Z"/>
        <path class="cls-3" d="M75.7,83.8c1.9.4,3.3,1.7,4.5,3.1,1.4,1.8,2.5,3.8,3.5,5.9-.4.2-.8.3-1.2.5-.9-1.1-1.4-2.4-2.2-3.6-.9-1.4-1.8-2.6-3.1-3.6-.8-.6-1.1-1.5-1.4-2.3Z"/>
        <path class="cls-5" d="M86.8,90.8c-2.1-5.2-6.2-7.8-11.5-8.9-.1,0-.2-.1-.3-.2,4-.5,7,1.6,9.8,4,1.4,1.2,2.5,2.6,2.8,4.6-.3.2-.6.4-.8.6Z"/>
        <path class="cls-1" d="M86.8,90.8c.3-.2.6-.4.8-.6.7,2-.8,4.4-2.8,4.6-1.2.1-1.9-.4-2.4-1.4.4-.2.8-.3,1.2-.5,1.2-.4,2.4-1.1,3.2-2.1Z"/>
        <path class="cls-1" d="M44.3,90.7c.3.3.7.5,1,.8.8,1,1.8,1.6,3,2,.4.1.8.3,1.2.4-.5,1.1-1.2,1.6-2.4,1.5-1.2-.2-2.6-1.4-2.9-2.7-.2-.7-.2-1.3,0-2Z"/>
        <path class="cls-5" d="M42.7,95.4c.2-.1.4-.2.7-.3,1.7,3.5,5,4,8.4,4.3.7,0,1.3,0,1.2.9-3.4-.3-6.9-.6-9.4-3.3-.4-.4-.7-.9-.8-1.5Z"/>
        <path class="cls-7" d="M77.5,88.5c0-.1-.2-.2-.3-.4.2,0,.4-.1.5.1,0,0-.2.1-.2.2Z"/>
        <path class="cls-1" d="M42.9,88.5c.1,0,.2,0,.3,0,0,0,0,.1-.1.2,0,0-.1-.1-.2-.2Z"/>
        <path class="cls-1" d="M96.6,57.1c-.2,0-.2-.1-.3-.3,0,0,.2.2.3.3Z"/>
        <path class="cls-3" d="M56.4,86.6c0,0-.2.1-.2.2,0-.1,0-.3.2-.2Z"/>
        <path class="cls-1" d="M43.2,38.6c.2-7.1,1.2-14.5,3.9-21.6.9-2.4.9-2.4,2.6-.4,4.1,5.1,6.2,11.2,7.5,17.5.1.6,0,1.1-.3,1.6-3,4.3-6.8,7.7-11.6,9.9-1.5.7-1.4.6-1.7-.9-.3-1.9-.2-3.8-.3-6.1Z"/>
        <path class="cls-3" d="M60.5,62.6c.3,3.9-3.3,7.2-7.3,7.2-3.9,0-7.2-3.4-7.2-7.4,0-4.4,3.9-7.3,7.5-7.3,3.2,0,7.5,3.3,7,7.4ZM50.8,66.6c0,0,.2.2.3.3,1,1.6,4.1,1.8,6,.7,3-1.7,3.6-5.3,1.3-8.5-.1-.4-.4-.6-.8-.6-.1,0-.2-.2-.4-.3-1.9-.8-3.7-1.1-5.6,0-2.9,1.8-3.5,6.2-1,8.1,0,0,.2.2.3.3Z"/>
        <path class="cls-3" d="M92.2,56.1c2.7,1.6,4.2,3.9,3.8,7.2,0,.7,0,1.5,0,2.3,0,0,0,0,0,0-1.2.9-1.6,2.5-3,3.2-.9,0-1.5.7-2.4.9-1.7.4-3.1-.4-4.7-.6-.9-.5-1.6-1.2-2.2-2.1.1-1-.6-1.7-.9-2.6-.7-2.7.2-5,2-6.9,1.9-1.9,4.2-2.4,6.8-1.3.1,0,.3,0,.4,0ZM85.8,66.8h0c1.3,1.7,4.1,1.9,6.3.5,2.8-1.8,3.3-6.2.8-8-.3-.4-.6-.8-1.1-.9-1.6-1.3-3.3-1.2-5-.4-1.9.9-3,2.4-3,4.5,0,1.5,0,3,1.7,3.8h0s0,0,0,0l.3.4Z"/>
        <path class="cls-1" d="M89,47.3c.6,0,1.2,0,1.7.2,1.7.4,2.1,1.7.9,3-.3.3-.6.6-.8.8-1.9,1-3.8,1.7-6,1.5-1,0-2.1-.3-2.4-1.4-.3-1.1.5-1.7,1.2-2.3,1.6-1.2,3.4-1.7,5.4-1.9Z"/>
        <path class="cls-1" d="M58.2,52.9c-2.3,0-4.2-.7-5.9-2-.7-.5-1.2-1.3-1-2.2.3-1,1.2-1.2,2-1.3,2.5-.3,4.9.3,6.9,2,.6.5,1.3,1.1,1,2.1-.3,1-1.2,1.3-2.1,1.3-.4,0-.7,0-.9,0Z"/>
        <path class="cls-4" d="M71.9,73.4c1.1-.6,2.2-1.2,3.2-1.8.6-.3.7-.7.7-1.3,0-.8-.6-.6-1.1-.7,0,0,0,0-.1,0-2-.4-3.3-1.6-3.3-2.9,0-1.2,1.3-2.4,3.3-2.7,1.8-.3,3.6-.3,5.2.7,2,1.1,2,3.1,0,4.2-.6.4-1.3.6-2,.7-.4,0-.9,0-.9.5,0,.5-.2,1.1.4,1.5.6.4,1.1,1,1.8,1.4.2.1.4.3.3.5,0,0-.4.2-.5.1-2.1-1.2-4.1-.5-6.2,0-.2,0-.5.1-.7-.1ZM75.5,64.5c-1.1,0-2.1.3-2.9,1.1-.8.7-.8,1.7,0,2.4,1.6,1.4,5.8,1.4,7.4,0,.3-.3.6-.5.5-1,0-1.3-1-1.8-1.9-2-1-.2-2-.5-3.1-.4Z"/>
        <path class="cls-6" d="M86,69c1.5.2,3,.9,4.7.6.8-.2,1.5-.8,2.4-.9,0,.2,0,.3,0,.5-1.7,1.6-5.4,1.5-7-.2Z"/>
        <path class="cls-5" d="M93,69.2c0-.2,0-.3,0-.5,1.4-.7,1.8-2.3,3-3.2-.5,1.6-1.5,2.9-3,3.7Z"/>
        <path class="cls-3" d="M59.4,81.9c0,0,0-.2,0-.3.2,0,.2.1,0,.3Z"/>
        <path class="cls-3" d="M56.7,120.4c-.2,0-.4,0-.6,0,.2-.3.4-.2.6,0Z"/>
        <path class="cls-3" d="M76.1,120.6c0,0-.2,0-.3,0,0-.1.2-.2.3,0Z"/>
        <path class="cls-4" d="M50.5,66.3c-2.5-1.9-1.9-6.3,1-8.1,1.9-1.1,3.7-.9,5.6,0,0,0,0,.2,0,.2-1.4-.4-2.7,0-3.2,1.1-.6,1.1-.4,2.4.6,3.2.9.8,1.9.9,2.9.2,1.3-.9,1.5-1.9.8-3.4,0-.1,0-.2.1-.3,2.3,3.2,1.7,6.8-1.3,8.5-1.9,1.1-5,.9-6-.7,0,0,0,0,0,0,.3,0,.5,0,.8,0,1,0,1.5-.5,1.4-1.5,0-1-.8-1.4-1.6-1.3-1.4.2-1.2,1.3-1.1,2.3h0Z"/>
        <path class="cls-6" d="M58.3,59.1c0,.1,0,.2-.1.3-.3-.3-.5-.5-.8-.8,0,0,0,0,.1-.1.4,0,.7.2.8.6Z"/>
        <path class="cls-6" d="M57.1,58.5c0,0,0-.2,0-.2.1,0,.2.2.4.3,0,0,0,.1-.1.1-.1,0-.2-.1-.3-.2Z"/>
        <path class="cls-4" d="M51.1,66.8c0,0-.2-.2-.3-.3h0c.2,0,.3,0,.3.3h0Z"/>
        <path class="cls-4" d="M50.8,66.6c0,0-.2-.2-.3-.3,0,0,0,0,0,0,.2,0,.3.1.3.3h0Z"/>
        <path class="cls-4" d="M85.4,66.4c-1.6-.8-1.8-2.3-1.7-3.8,0-2.1,1.1-3.7,3-4.5,1.7-.8,3.4-.9,5,.4-.2,0-.4,0-.5,0-1.2-.3-2.2,0-2.7,1.2-.5,1.2-.2,2.5.8,3.2,1,.7,2.2.6,3.2-.3,1.1-1,.8-2.1.4-3.3,2.5,1.9,2,6.2-.8,8-2.2,1.4-5,1.2-6.3-.5.9,0,1.8.2,2.1-.9.2-.6,0-1.3-.6-1.7-.6-.3-1.2-.5-1.7,0-.6.6-.6,1.3-.1,2Z"/>
        <path class="cls-1" d="M92.9,59.3c.4,1.2.7,2.3-.4,3.3-1,.9-2.2,1-3.2.3-1-.7-1.4-2-.8-3.2.5-1.2,1.5-1.4,2.7-1.2.2,0,.4,0,.5,0,.5.1.8.5,1.1.9Z"/>
        <path class="cls-1" d="M85.4,66.4c-.5-.7-.5-1.4.1-2,.5-.5,1.2-.4,1.7,0,.6.4.8,1,.6,1.7-.3,1.1-1.2,1-2.1.9,0,0,0,0,0,0,0-.1-.2-.3-.3-.4h0c0,0,0,0,0,0Z"/>
        <path class="cls-4" d="M85.5,66.5c0,.1.2.3.3.4,0-.1-.2-.3-.3-.4Z"/>
        <path class="cls-6" d="M80.6,66.8c0,.5-.3.7-.5,1-1.6,1.5-5.8,1.5-7.4,0-.8-.7-.9-1.7,0-2.4.8-.7,1.8-1.1,2.9-1.1.1.2.5.2.3.6-.6.9,0,1.3.7,1.6.9.4,1.9.5,2.7,0,.7-.4.9,0,1.4.2Z"/>
        <path class="cls-1" d="M80.6,66.8c-.4-.2-.7-.6-1.4-.2-.8.5-1.8.4-2.7,0-.6-.3-1.3-.7-.7-1.6.3-.4-.2-.4-.3-.6,1.1-.1,2.1.2,3.1.4,1,.2,1.9.7,1.9,2Z"/>
        <path class="cls-1" d="M57.1,58.5c.1,0,.2.1.3.2.3.3.5.5.8.8.7,1.5.5,2.5-.8,3.4-1,.7-2,.6-2.9-.2-.9-.7-1.1-2.1-.6-3.2.6-1,1.8-1.5,3.2-1.1Z"/>
        <path class="cls-1" d="M50.8,66.6c0-.2,0-.3-.3-.3,0-1-.3-2.1,1.1-2.3.9-.1,1.6.3,1.6,1.3,0,1-.4,1.5-1.4,1.5-.3,0-.5,0-.8,0,0-.2-.1-.3-.3-.3Z"/>
      </g>
    </g>
  </g>
</svg>