<?xml version="1.0" encoding="UTF-8"?>
<svg xmlns="http://www.w3.org/2000/svg" version="1.1" xmlns:xlink="http://www.w3.org/1999/xlink" viewBox="0 0 161 164.9">
  <defs>
    <style>
      .cls-1 {
        fill: #f52ef5;
      }

      .cls-2 {
        isolation: isolate;
      }

      .cls-3 {
        fill: #52252f;
      }
    </style>
  </defs>
  <!-- Generator: Adobe Illustrator 28.7.1, SVG Export Plug-In . SVG Version: 1.2.0 Build 142)  -->
  <g>
    <g id="Layer_1">
      <image class="cls-2" width="161" height="86" transform="translate(0 78.9)" xlink:href="ghost_1-1.png"/>
      <path class="cls-1" d="M73.1,0h14.8c8.2,0,15.2,2.9,21,8.7,5.8,5.8,8.7,12.8,8.7,21v48.8c0,4.8-.9,9.2-2.7,13.1h0c0,0-7.3,11-7.3,11-3.8,5.9-7.5,5.9-11.3,0l-5.1-7.6-5,7.6c-3.8,5.9-7.5,5.9-11.3,0l-5-7.6-5,7.6c-3.8,5.9-7.5,5.9-11.3,0l-7.3-11c-2.2-4.2-3.1-8.6-2.8-13.2V29.6c0-8.2,2.9-15.2,8.7-21C57.9,2.9,64.9,0,73.1,0"/>
      <path class="cls-3" d="M84.7,30.5c0-.5.2-1,.5-1.4h0c.4-.5.9-.6,1.5-.6.5,0,1,.1,1.3.5l2.8,2.8,2.7-2.7c.4-.4.9-.6,1.4-.6s1,.2,1.4.6h0c.3.4.5.9.5,1.5,0,.5-.1,1-.5,1.4l-2.7,2.7,2.7,2.7c.4.3.6.8.6,1.4s-.2,1-.6,1.4h0c-.3.5-.8.6-1.4.6-.5,0-1-.2-1.4-.5l-2.7-2.7-2.7,2.7-1.5.5c-.6,0-1.1-.2-1.4-.5h0c-.4-.5-.6-1-.5-1.5,0-.5.2-1,.6-1.3l2.7-2.7-2.8-2.8c-.3-.4-.5-.9-.5-1.4M87.3,46.2c3.2,3.2,4.8,7.1,4.8,11.6s-.2,3.1-.6,4.5h-31.4c-.4-1.4-.6-2.9-.6-4.5,0-4.5,1.6-8.4,4.7-11.6,3.2-3.2,7.1-4.7,11.6-4.7s8.3,1.6,11.5,4.7M55.6,28.5c.5,0,1,.1,1.3.5l2.8,2.8,2.7-2.7c.4-.4.9-.6,1.4-.6s1,.2,1.4.6h0c.3.4.5.9.5,1.5l-.5,1.4-2.7,2.7,2.7,2.7c.4.3.6.8.6,1.4s-.2,1-.6,1.4h0c-.3.5-.8.6-1.4.6-.5,0-1-.2-1.4-.5l-2.7-2.7-2.7,2.7-1.5.5c-.6,0-1.1-.2-1.4-.5h0c-.4-.5-.6-1-.5-1.5,0-.5.2-1,.6-1.3l2.7-2.7-2.8-2.8c-.3-.4-.5-.9-.5-1.4s.2-1,.5-1.4h0c.4-.5.9-.6,1.5-.6"/>
    </g>
  </g>
</svg>