<?xml version="1.0" encoding="UTF-8"?>
<svg id="Layer_1" xmlns="http://www.w3.org/2000/svg" viewBox="0 0 139 148">
  <defs>
    <style>
      .cls-1 {
        fill: #fff;
      }

      .cls-2 {
        fill: #9d9d9c;
      }

      .cls-3 {
        fill: #a3195b;
      }

      .cls-4 {
        fill: #3c3c3b;
      }

      .cls-5 {
        fill: #dadada;
      }
    </style>
  </defs>
  <g>
    <polygon class="cls-2" points="109.24 119.18 139 113.63 139 124.72 109.24 119.18"/>
    <polygon class="cls-2" points="109.76 118.76 104.21 89 115.3 89 109.76 118.76"/>
    <polygon class="cls-2" points="109.52 118.96 126.65 143.92 134.49 136.08 109.52 118.96"/>
    <polygon class="cls-2" points="109.52 119.4 126.65 94.43 134.49 102.27 109.52 119.4"/>
    <polygon class="cls-2" points="109.76 118.24 104.21 148 115.3 148 109.76 118.24"/>
    <polygon class="cls-2" points="109.76 119.29 80 113.74 80 124.83 109.76 119.29"/>
    <polygon class="cls-2" points="109.99 119.06 92.87 144.03 85.03 136.19 109.99 119.06"/>
    <polygon class="cls-2" points="109.99 119.5 92.87 94.54 85.03 102.38 109.99 119.5"/>
  </g>
  <g>
    <polygon class="cls-2" points="109.24 29.38 139 23.83 139 34.92 109.24 29.38"/>
    <polygon class="cls-2" points="109.76 29.76 104.21 0 115.3 0 109.76 29.76"/>
    <polygon class="cls-2" points="109.52 29.15 126.65 54.12 134.49 46.28 109.52 29.15"/>
    <polygon class="cls-2" points="109.52 29.59 126.65 4.63 134.49 12.47 109.52 29.59"/>
    <polygon class="cls-2" points="109.76 29.24 104.21 59 115.3 59 109.76 29.24"/>
    <polygon class="cls-2" points="109.76 29.49 80 23.94 80 35.03 109.76 29.49"/>
    <polygon class="cls-2" points="109.99 29.26 92.87 54.23 85.03 46.39 109.99 29.26"/>
    <polygon class="cls-2" points="109.99 29.7 92.87 4.74 85.03 12.58 109.99 29.7"/>
  </g>
  <circle class="cls-5" cx="66" cy="75" r="66"/>
  <circle class="cls-4" cx="66" cy="75" r="59"/>
  <circle class="cls-5" cx="66" cy="75" r="20"/>
  <rect class="cls-5" x="95.5" y="59.5" width="22" height="31" rx="10.98" ry="10.98" transform="translate(181.5 -31.5) rotate(90)"/>
  <circle class="cls-3" cx="111.5" cy="74.5" r="7.5"/>
  <circle class="cls-1" cx="111.5" cy="74.5" r="2"/>
</svg>